<svg xmlns="http://www.w3.org/2000/svg" width="512" height="512" viewBox="0 0 512 512"><path fill="#C88FFF" d="M6.998 11.998h499.004v486.004H6.998z"/><path fill="#312963" d="M45.008 51.016h421.987v407.969H45.008z"/><path d="M388 216l-83 16-98-80-44 5-70 201 134 101h240V279zM45.008 51.001h421.987v13.998H45.008z" opacity=".302"/><g fill="#C88FFF"><path d="M150.294 299.554l-17.719 58.35H93.777L159.764 152h47.963l66.903 205.904h-40.325l-18.635-58.35h-65.376zm58.961-28.411l-16.191-50.712c-3.971-12.525-7.332-26.578-10.387-38.493h-.611c-3.055 11.915-6.11 26.272-9.776 38.493l-15.886 50.712h52.851zM316.174 294.055c.916 26.884 21.995 38.492 45.824 38.492 17.413 0 29.938-2.443 41.242-6.721l5.499 25.967c-12.831 5.194-30.55 9.165-51.935 9.165-48.269 0-76.68-29.633-76.68-75.151 0-41.242 25.051-80.041 72.708-80.041 48.269 0 64.154 39.714 64.154 72.403 0 7.026-.611 12.525-1.222 15.886h-99.59zm65.376-26.273c.306-13.748-5.805-36.354-30.855-36.354-23.218 0-32.993 21.08-34.521 36.354h65.376z"/></g></svg>