<svg xmlns="http://www.w3.org/2000/svg" width="512" height="512" viewBox="0 0 512 512"><path fill="#3EDEAC" d="M6.998 11.998h499.004v486.004H6.998z"/><path fill="#334C4D" d="M45.008 51.016h421.987v407.969H45.008z"/><path d="M409 211l-28 46-58-46-20 21-97-79-43 4-60 202 133 100h231V257zM45.008 51.001h421.987v13.998H45.008z" opacity=".302"/><g fill="#3EDEAC"><path d="M153.202 300.554l-15.947 58.35h-34.918L161.726 153h43.167l60.214 205.904h-36.293l-16.772-58.35h-58.84zm53.065-28.411l-14.572-50.712c-3.574-12.525-6.599-26.578-9.348-38.493h-.55c-2.75 11.915-5.499 26.272-8.798 38.493l-14.297 50.712h47.565zM409.449 314.301c0 17.719.55 32.383 1.1 44.603h-29.694l-1.65-22.606h-.55c-5.773 10.692-18.971 25.967-42.892 25.967-24.471 0-46.741-16.191-46.741-64.765v-87.373h33.818v80.957c0 24.745 7.148 40.631 25.021 40.631 13.473 0 22.271-10.692 25.845-20.162 1.101-3.36 1.925-7.332 1.925-11.609v-89.816h33.819v104.173z"/></g></svg>