<svg xmlns="http://www.w3.org/2000/svg" viewBox="0 0 78.56 88.92"><defs><style>.cls-1{fill:#e6a329;}.cls-2{fill:#f1bf22;}.cls-3{fill:#fff;}.cls-4{fill:#ebebeb;}</style></defs><title>Layer 1</title><g id="Layer_2" data-name="Layer 2"><g id="Layer_1-2" data-name="Layer 1"><path class="cls-1" d="M78.56,0H0L7.36,79.87l31.92,9,31.91-9Z"/><path class="cls-2" d="M39.28,6.51V82.15l25.85-7.33L71.42,6.51Z"/><path class="cls-3" d="M59.85,16.3H20.09L17.32,46.2l.06-.18H51.15l-1.1,12.65-10.77,3.1L28.34,58.62,27.69,51H17.76l1.42,15.3L39.28,72l20.11-5.71,2.77-30H26.31l.46-10H51.64L52,32H62Z"/><path class="cls-4" d="M39.29,16.3H20.09L17.32,46.2l.06-.18H39.29V36.27H27.71l.46-10H39.29ZM27.71,51H17.76l1.42,15.29L39.28,72V61.78L28.34,58.62Z"/></g></g></svg>