<svg xmlns="http://www.w3.org/2000/svg" viewBox="0 0 149 149"><defs><style>.cls-1{fill:#2967b0;}.cls-2{fill:#fdfdfd;}</style></defs><title>linkedinAsset 7</title><g id="Layer_2" data-name="Layer 2"><g id="Contacts_Tab" data-name="Contacts Tab"><circle class="cls-1" cx="74.5" cy="74.5" r="74.5"/><path class="cls-2" d="M80.26,64.34c1.23-1.38,2.24-2.77,3.49-4A19.15,19.15,0,0,1,97.52,55a31.61,31.61,0,0,1,8.66,1c6.47,1.87,10.22,6.32,12,12.64a53.15,53.15,0,0,1,1.6,14.48c0,10.29,0,20.58,0,30.87,0,1-.27,1.22-1.22,1.21q-7.95-.06-15.9,0c-.94,0-1.14-.28-1.13-1.16q0-14.69,0-29.38a26.44,26.44,0,0,0-.85-7.29c-1.27-4.39-4.42-6.63-9-6.39-6.29.33-9.56,3.44-10.36,9.84A37,37,0,0,0,81,85.41c0,9.52,0,19,0,28.57,0,1-.24,1.23-1.21,1.22q-8-.06-16,0c-.86,0-1.1-.23-1.1-1.09q0-28.29,0-56.57c0-.93.3-1.15,1.18-1.14q7.62.06,15.22,0c.93,0,1.17.29,1.15,1.17C80.23,59.83,80.26,62.08,80.26,64.34Z"/><path class="cls-2" d="M51.22,85.88c0,9.33,0,18.66,0,28,0,1-.26,1.35-1.33,1.34-5.3-.06-10.6,0-15.9,0-.85,0-1.1-.21-1.1-1.09q0-28.32,0-56.65c0-.79.19-1.06,1-1.06,5.38,0,10.75.05,16.13,0,1,0,1.17.39,1.17,1.28Q51.2,71.77,51.22,85.88Z"/><path class="cls-2" d="M52.68,37.68A10.59,10.59,0,1,1,42.11,27.15,10.62,10.62,0,0,1,52.68,37.68Z"/></g></g></svg>