<svg xmlns="http://www.w3.org/2000/svg" width="512" height="512" viewBox="0 0 512 512"><path fill="#D757FF" d="M6.998 11.998h499.004v486.004H6.998z"/><path fill="#3A2641" d="M45.008 51.016h421.987v407.969H45.008z"/><path d="M368 209l-13 30-32-28-17 4-65-53-99-5-1 202 133 100h193V289zM45.008 51.001h421.987v13.998H45.008z" opacity=".302"/><g fill="#D757FF"><path d="M141.95 155.749c12.098-2.444 28.869-4.277 51.69-4.277 24.746 0 42.892 5.805 54.715 16.802 10.998 10.082 18.147 26.273 18.147 45.519 0 19.552-5.499 35.743-15.947 46.741-13.473 14.97-34.644 21.996-58.564 21.996-6.324 0-12.098-.306-16.497-1.222v77.596H141.95V155.749zm33.544 95.925c4.125 1.222 9.623 1.527 16.497 1.527 25.295 0 40.692-13.748 40.692-37.881 0-22.913-14.297-35.132-37.668-35.132-9.348 0-15.947.917-19.521 1.833v69.653zM294.268 258.09c0-20.163-.274-34.521-1.1-47.963h29.419l1.101 28.411h1.1c6.599-21.079 22.271-31.771 36.568-31.771 3.299 0 5.224.306 7.973.917v35.438c-2.749-.611-5.773-1.222-9.897-1.222-16.223 0-27.22 11.609-30.244 28.411-.551 3.36-1.101 7.332-1.101 11.608v76.985h-33.818V258.09z"/></g></svg>