<svg xmlns="http://www.w3.org/2000/svg" viewBox="0 0 149 149"><defs><style>.cls-1{fill:#fff;}.cls-2{fill:#40c057;}</style></defs><title>upworkAsset 8</title><g id="Layer_2" data-name="Layer 2"><g id="Contacts_Tab" data-name="Contacts Tab"><circle class="cls-1" cx="74.5" cy="74.5" r="74.5"/><path class="cls-2" d="M24,40a2.21,2.21,0,0,0-2.11,2.3V74.72c0,14.16,9.85,26.46,22.79,27.26,12.41.77,23-8.74,25.17-21.44,1.19,1.77,2.41,3.42,3.64,4.93l-7.42,34.41a2.51,2.51,0,0,0,.4,2,2.08,2.08,0,0,0,1.65.87H78.91A2.13,2.13,0,0,0,81,121c1.31-6,3.35-15.46,5.21-24l1.91,1.21A27.82,27.82,0,0,0,101.85,102c15.13,0,27.19-14.61,25-31.6-1.47-11.25-9.39-20.52-19.56-22.91C95.43,44.73,84,51.36,79.11,62.38c0,0-.54,1.32-1,2.64a73.25,73.25,0,0,1-6.58-18.24c-.38-1.79-1-5-1-5.25a2.13,2.13,0,0,0-2-1.54H57.67a2.21,2.21,0,0,0-2.1,2.3V75.15c0,5.39-3.6,10.22-8.52,10.74-5.64.61-10.41-4.24-10.41-10.29V42.29A2.21,2.21,0,0,0,34.53,40Zm77.83,23c5.8,0,10.51,5.15,10.51,11.48s-4.71,11.49-10.51,11.49c-4.68,0-9-3.08-12.06-5.77,1.11-5.11,1.85-8.53,1.87-8.59A10.71,10.71,0,0,1,101.85,63Z"/></g></g></svg>