<svg xmlns="http://www.w3.org/2000/svg" xmlns:xlink="http://www.w3.org/1999/xlink" viewBox="0 0 149 149"><defs><style>.cls-1{fill:url(#linear-gradient);}.cls-2{fill:#fff;fill-rule:evenodd;}</style><linearGradient id="linear-gradient" x1="74.5" y1="138.18" x2="74.5" y2="-10.82" gradientUnits="userSpaceOnUse"><stop offset="0" stop-color="#27cd44"/><stop offset="1" stop-color="#5ffb7c"/></linearGradient></defs><title>whatsappAsset 6</title><g id="Layer_2" data-name="Layer 2"><g id="Contacts_Tab" data-name="Contacts Tab"><circle class="cls-1" cx="74.5" cy="74.5" r="74.5"/><g id="WA_Logo" data-name="WA Logo"><path class="cls-2" d="M110.34,39.58A47.27,47.27,0,0,0,36,96.59l-6.7,24.48,25-6.57a47.26,47.26,0,0,0,22.59,5.75h0a47.26,47.26,0,0,0,33.43-80.67ZM76.91,112.27h0a39.26,39.26,0,0,1-20-5.47L55.46,106,40.6,109.84l4-14.49-.93-1.48a39.29,39.29,0,1,1,33.28,18.4ZM98.45,82.86c-1.18-.59-7-3.45-8.07-3.84s-1.87-.59-2.65.59-3,3.84-3.74,4.63-1.38.89-2.56.29a32.05,32.05,0,0,1-9.5-5.86,35.68,35.68,0,0,1-6.57-8.17c-.69-1.18-.07-1.82.52-2.41s1.18-1.38,1.77-2.07a7.93,7.93,0,0,0,1.18-2,2.15,2.15,0,0,0-.1-2.07c-.29-.59-2.65-6.4-3.64-8.76s-1.93-2-2.65-2-1.48,0-2.27,0A4.34,4.34,0,0,0,57,52.63a13.22,13.22,0,0,0-4.13,9.84c0,5.81,4.23,11.43,4.82,12.22S66,87.4,77.89,92.51A67.49,67.49,0,0,0,84.62,95a16.24,16.24,0,0,0,7.44.47c2.27-.34,7-2.86,8-5.62s1-5.12.69-5.61S99.63,83.45,98.45,82.86Z"/></g></g></g></svg>